<?xml version="1.0" encoding="utf-8"?>
<svg xmlns="http://www.w3.org/2000/svg" viewBox="0 0 186 118" style="fill: #010101; background-color: white;">
	<!-- main shape -->
	<polygon points="50.91,107.76 98.47,107.76 125.58,90.87 125.58,49 135.09,43.04 135.09,10.24 87.82,10.24 50.91,32.53"/>

	<!-- contacts -->
	<polygon points="80.15,25.47 95.03,25.47 115.74,11.3 100.88,11.3" style="fill: #E98724;"/>

	<!-- ink color -->
	<rect x="54.24" y="35.36" width="41.59" height="69.13" style="fill: white;"/>

	<!-- lines -->
	<path d="M66.91,38.42h17.01c1.13,0,2.05,0.87,2.05,1.95l0,0c0,1.07-0.92,1.95-2.05,1.95H66.17 c-1.13,0-2.05-0.87-2.05-1.95l0,0c0-1.07,0.92-1.95,2.05-1.95H66.91z"/>
	<path d="M53.89,95.91H65.1c0.75,0,1.35,0.87,1.35,1.95l0,0c0,1.07-0.6,1.95-1.35,1.95H53.4 c-0.75,0-1.35-0.87-1.35-1.95l0,0c0-1.07,0.6-1.95,1.35-1.95H53.89z"/>
	<path d="M83.71,95.91h12.34c0.82,0,1.48,0.87,1.48,1.95l0,0c0,1.07-0.66,1.95-1.48,1.95H83.17 c-0.82,0-1.48-0.87-1.48-1.95l0,0c0-1.07,0.66-1.95,1.48-1.95H83.71z"/>

	<!-- letter -->
	<polygon points="62.2,81.76 66.04,81.76 66.04,66.32 73.13,79.78 74.5,79.78 74.5,73.46 67.96,61.23 62.2,61.23"/>
	<polygon points="86.76,81.76 82.92,81.76 82.92,66.32 75.83,79.78 74.45,79.78 74.45,73.46 81,61.23 86.76,61.23"/>

	<!-- fader -->
	<rect x="0" y="0" width="186" height="118" style="fill: white; fill-opacity: 0.7;"/>
</svg>
