<?xml version="1.0" encoding="utf-8"?>
<svg xmlns="http://www.w3.org/2000/svg" viewBox="0 0 186 118" style="fill: #010101; background-color: white;">
	<!-- main shape -->
	<polygon points="50.91,107.76 98.47,107.76 125.58,90.87 125.58,49 135.09,43.04 135.09,10.24 87.82,10.24 50.91,32.53"/>

	<!-- contacts -->
	<polygon points="80.15,25.47 95.03,25.47 115.74,11.3 100.88,11.3" style="fill: #E98724;"/>

	<!-- ink color -->
	<rect x="54.24" y="35.36" width="41.59" height="69.13" style="fill: #F7E920;"/>

	<!-- lines -->
	<path d="M66.91,38.42h17.01c1.13,0,2.05,0.87,2.05,1.95l0,0c0,1.07-0.92,1.95-2.05,1.95H66.17 c-1.13,0-2.05-0.87-2.05-1.95l0,0c0-1.07,0.92-1.95,2.05-1.95H66.91z"/>
	<path d="M53.89,95.91H65.1c0.75,0,1.35,0.87,1.35,1.95l0,0c0,1.07-0.6,1.95-1.35,1.95H53.4 c-0.75,0-1.35-0.87-1.35-1.95l0,0c0-1.07,0.6-1.95,1.35-1.95H53.89z"/>
	<path d="M83.71,95.91h12.34c0.82,0,1.48,0.87,1.48,1.95l0,0c0,1.07-0.66,1.95-1.48,1.95H83.17 c-0.82,0-1.48-0.87-1.48-1.95l0,0c0-1.07,0.66-1.95,1.48-1.95H83.71z"/>

	<!-- letter -->
	<polygon points="72.97,84.17 76.91,84.17 76.91,75.2 84.75,62.8 80.81,62.8 74.99,71.86 69.17,62.8 65.34,62.8 72.9,75.2"/>
</svg>
