<?xml version="1.0" encoding="utf-8"?>
<!-- Generator: Adobe Illustrator 27.6.1, SVG Export Plug-In . SVG Version: 6.00 Build 0)  -->
<svg version="1.1" id="Layer_1" xmlns="http://www.w3.org/2000/svg" xmlns:xlink="http://www.w3.org/1999/xlink" x="0px" y="0px"
	 viewBox="0 0 186 118" style="enable-background:new 0 0 186 118;" xml:space="preserve">
<style type="text/css">
	.st0{fill:#010101;}
	.st1{fill:#E4178B;}
	.st2{fill:#E98724;}
	.st3{fill:#FFFFFF;}
	.st4{fill:#F7E920;}
	.st5{fill:#E98624;}
</style>
<g>
	<g>
		<polygon class="st0" points="51.05,107.8 98.45,107.8 125.48,90.96 125.48,49.23 134.95,43.29 134.95,10.6 87.83,10.6 
			51.05,32.81 		"/>
		<rect x="54.38" y="35.64" class="st1" width="41.45" height="68.9"/>
		<path class="st0" d="M66.99,38.68h16.96c1.13,0,2.04,0.87,2.04,1.95l0,0c0,1.07-0.91,1.95-2.04,1.95H66.26
			c-1.13,0-2.04-0.87-2.04-1.95l0,0c0-1.07,0.91-1.95,2.04-1.95H66.99z"/>
		<g>
			<polygon class="st0" points="62.2,81.76 66.04,81.76 66.04,66.32 73.13,79.78 74.5,79.78 74.5,73.46 67.96,61.23 62.2,61.23 			
				"/>
			<polygon class="st0" points="86.76,81.76 82.92,81.76 82.92,66.32 75.83,79.78 74.45,79.78 74.45,73.46 81,61.23 86.76,61.23 			
				"/>
		</g>
		<polygon class="st2" points="80.2,25.78 95.01,25.78 115.67,11.66 100.86,11.66 		"/>
	</g>
	<path class="st0" d="M83.75,95.99h12.3c0.82,0,1.48,0.87,1.48,1.95l0,0c0,1.07-0.66,1.95-1.48,1.95H83.2
		c-0.82,0-1.48-0.87-1.48-1.95l0,0c0-1.07,0.66-1.95,1.48-1.95H83.75z"/>
	<path class="st0" d="M54.02,95.99h11.17c0.75,0,1.35,0.87,1.35,1.95l0,0c0,1.07-0.6,1.95-1.35,1.95H53.52
		c-0.75,0-1.35-0.87-1.35-1.95l0,0c0-1.07,0.6-1.95,1.35-1.95H54.02z"/>
</g>
<rect x="0" class="st3" width="186" height="118"/>
<g>
	<polygon points="50.91,107.56 98.46,107.56 125.58,90.67 125.58,48.79 135.09,42.83 135.09,10.04 87.82,10.04 50.91,32.33 	"/>
	<rect x="54.25" y="35.17" class="st4" width="41.59" height="69.13"/>
	<path d="M66.91,38.22h17.01c1.13,0,2.05,0.87,2.05,1.95v0c0,1.08-0.92,1.95-2.05,1.95H66.17c-1.13,0-2.05-0.87-2.05-1.95v0
		c0-1.08,0.92-1.95,2.05-1.95H66.91z"/>
	<path d="M53.89,95.71H65.1c0.75,0,1.35,0.87,1.35,1.95l0,0c0,1.08-0.61,1.95-1.35,1.95H53.4c-0.75,0-1.35-0.87-1.35-1.95l0,0
		c0-1.08,0.61-1.95,1.35-1.95H53.89z"/>
	<path d="M83.71,95.71h12.34c0.82,0,1.49,0.87,1.49,1.95l0,0c0,1.08-0.67,1.95-1.49,1.95H83.17c-0.82,0-1.49-0.87-1.49-1.95l0,0
		c0-1.08,0.67-1.95,1.49-1.95H83.71z"/>
	<polygon class="st5" points="80.15,25.27 95.02,25.27 115.75,11.11 100.88,11.11 	"/>
	<polygon points="72.97,84.17 76.91,84.17 76.91,75.2 84.75,62.8 80.81,62.8 74.99,71.86 69.17,62.8 65.34,62.8 72.9,75.2 	"/>
</g>
</svg>
